<?xml version="1.0" encoding="utf-8"?>
<!-- Generator: Adobe Illustrator 25.0.0, SVG Export Plug-In . SVG Version: 6.00 Build 0)  -->
<svg version="1.1" id="Layer_2_1_" xmlns="http://www.w3.org/2000/svg" xmlns:xlink="http://www.w3.org/1999/xlink" x="0px" y="0px"
	 viewBox="0 0 129 199" style="enable-background:new 0 0 129 199;" xml:space="preserve">
<style type="text/css">
	.st0{fill:#FE8E82;}
	.st1{fill:#F0F2F2;}
	.st2{fill:#747272;}
	.st3{fill:#FFFFFF;}
	.st4{fill:none;stroke:#3F455D;stroke-width:2;stroke-linecap:round;stroke-linejoin:round;stroke-miterlimit:10;}
	.st5{fill:#78E5FF;}
</style>
<g id="XMLID_4_">
	<g>
		<rect x="16" y="24.09" class="st0" width="96" height="16"/>
		<path class="st1" d="M62.16,171.64c4.1,0,7.43,3.33,7.43,7.43s-3.33,7.43-7.43,7.43c-4.1,0-7.43-3.33-7.43-7.43
			S58.06,171.64,62.16,171.64z"/>
		<path class="st2" d="M124,13.86v170.16c0,5.56-4.58,10.07-10.42,10.07h-6.17c5.84,0,10.59-4.51,10.59-10.07V13.86
			c0-5.56-4.77-9.77-10.61-9.77h6.19C119.42,4.09,124,8.3,124,13.86z"/>
		<path class="st1" d="M118,13.86v170.16c0,5.56-4.75,10.07-10.59,10.07H20.57c-5.84,0-10.57-4.51-10.57-10.07V13.86
			c0-5.56,4.73-9.77,10.57-9.77h86.82C113.23,4.09,118,8.3,118,13.86z M112,165.09v-125v-16H16v16v125H112z M69.59,179.07
			c0-4.1-3.33-7.43-7.43-7.43c-4.1,0-7.43,3.33-7.43,7.43s3.33,7.43,7.43,7.43C66.26,186.5,69.59,183.17,69.59,179.07z"/>
		<rect x="16" y="40.09" class="st3" width="96" height="125"/>
	</g>
	<g>
		<path class="st4" d="M107.39,4.09h6.19c5.84,0,10.42,4.21,10.42,9.77v170.16c0,5.56-4.58,10.07-10.42,10.07h-6.17H20.57
			c-5.84,0-10.57-4.51-10.57-10.07V13.86c0-5.56,4.73-9.77,10.57-9.77L107.39,4.09L107.39,4.09z"/>
		<path class="st4" d="M107.39,4.09c5.84,0,10.61,4.21,10.61,9.77v170.16c0,5.56-4.75,10.07-10.59,10.07"/>
		<polygon class="st4" points="112,40.09 112,165.09 16,165.09 16,40.09 16,24.09 112,24.09 		"/>
		<line class="st4" x1="55" y1="16.09" x2="73" y2="16.09"/>
		<path class="st4" d="M69.59,179.07c0,4.1-3.33,7.43-7.43,7.43c-4.1,0-7.43-3.33-7.43-7.43s3.33-7.43,7.43-7.43
			C66.26,171.64,69.59,174.97,69.59,179.07z"/>
		<line class="st4" x1="16" y1="40.09" x2="112" y2="40.09"/>
		<line class="st4" x1="30" y1="32.09" x2="100" y2="32.09"/>
	</g>
</g>
<g id="XMLID_3_">
	<g>
		<path class="st5" d="M49.9,114.09H40c-5.52,0-10-4.48-10-10v-26c0-5.52,4.48-10,10-10h50c5.52,0,10,4.48,10,10v26
			c0,5.52-4.48,10-10,10H63.01l-13.02,22.23L49.9,114.09z"/>
	</g>
	<g>
		<line class="st4" x1="40" y1="100.09" x2="89" y2="100.09"/>
		<line class="st4" x1="40" y1="91.09" x2="89" y2="91.09"/>
		<line class="st4" x1="40" y1="80.09" x2="89" y2="80.09"/>
		<path class="st4" d="M50,114.09h-0.1H40c-5.52,0-10-4.48-10-10v-26c0-5.52,4.48-10,10-10h50c5.52,0,10,4.48,10,10v26
			c0,5.52-4.48,10-10,10H63.01H63"/>
		<polyline class="st4" points="49.9,114.09 49.99,136.32 63.01,114.09 		"/>
	</g>
</g>
</svg>
