<?xml version="1.0" encoding="utf-8"?>
<!-- Generator: Adobe Illustrator 25.0.0, SVG Export Plug-In . SVG Version: 6.00 Build 0)  -->
<svg version="1.1" id="Layer_1" xmlns="http://www.w3.org/2000/svg" xmlns:xlink="http://www.w3.org/1999/xlink" x="0px" y="0px"
	 viewBox="0 0 268.55 174.2" style="enable-background:new 0 0 268.55 174.2;" xml:space="preserve">
<style type="text/css">
	.st0{fill:url(#SVGID_1_);}
	.st1{fill:url(#SVGID_2_);}
	.st2{fill:url(#SVGID_3_);}
	.st3{fill:none;stroke:#BE603D;stroke-width:1.4422;stroke-miterlimit:10;}
</style>
<g>
	<g>
		<g>
			
				<linearGradient id="SVGID_1_" gradientUnits="userSpaceOnUse" x1="132.074" y1="-58.4737" x2="132.6969" y2="135.8838" gradientTransform="matrix(1 0 0 -1 0 177.2)">
				<stop  offset="0" style="stop-color:#F1DE6D"/>
				<stop  offset="0.2333" style="stop-color:#F0D86D"/>
				<stop  offset="0.6411" style="stop-color:#ECC468"/>
				<stop  offset="1" style="stop-color:#EAB165"/>
			</linearGradient>
			<path class="st0" d="M255.2,174.2H9.9c-5.5,0-9.9-4.4-9.9-9.9V9.9C0,4.4,4.4,0,9.9,0h245.3c5.5,0,9.9,4.4,9.9,9.9v154.5
				C265.1,169.8,260.7,174.2,255.2,174.2z"/>
			
				<linearGradient id="SVGID_2_" gradientUnits="userSpaceOnUse" x1="96.4932" y1="-178.5638" x2="141.9982" y2="57.4661" gradientTransform="matrix(1 0 0 -1 0 177.2)">
				<stop  offset="0" style="stop-color:#F1DE6D"/>
				<stop  offset="0.2333" style="stop-color:#F0D86D"/>
				<stop  offset="0.6411" style="stop-color:#ECC468"/>
				<stop  offset="1" style="stop-color:#EAB165"/>
			</linearGradient>
			<path class="st1" d="M132.5,70.9L6.7,169c3.6,3.2,8.3,5.2,13.5,5.2h224.6c5.2,0,10-2,13.5-5.2L132.5,70.9z"/>
			
				<linearGradient id="SVGID_3_" gradientUnits="userSpaceOnUse" x1="133.3706" y1="196.9889" x2="127.0873" y2="15.9175" gradientTransform="matrix(1 0 0 -1 0 177.2)">
				<stop  offset="0" style="stop-color:#F1DE6D"/>
				<stop  offset="0.2333" style="stop-color:#F0D86D"/>
				<stop  offset="0.6411" style="stop-color:#ECC468"/>
				<stop  offset="1" style="stop-color:#EAB165"/>
			</linearGradient>
			<path class="st2" d="M132.5,103.4L258.3,5.3c-3.6-3.2-8.3-5.2-13.5-5.2H20.2c-5.2,0-10,2-13.5,5.2L132.5,103.4z"/>
		</g>
		<polyline class="st3" points="6.7,5.3 132.5,103.4 258.4,5.3 		"/>
	</g>
</g>
</svg>
